<mxfile host="app.diagrams.net" modified="2024-03-21T23:39:40.214Z" agent="Mozilla/5.0 (Windows NT 10.0; Win64; x64) AppleWebKit/537.36 (KHTML, like Gecko) Chrome/123.0.0.0 Safari/537.36" etag="qyrhV1W_GWn2Vs8RWg6k" version="23.1.2" type="device">
  <diagram name="Page-1" id="3dqt7KXvx-aSKXih2GIy">
    <mxGraphModel dx="880" dy="468" grid="1" gridSize="10" guides="1" tooltips="1" connect="1" arrows="1" fold="1" page="1" pageScale="1" pageWidth="850" pageHeight="1100" math="0" shadow="0">
      <root>
        <mxCell id="0" />
        <mxCell id="1" parent="0" />
        <mxCell id="sqPBYtyfBx3uXmts66P_-1" value="Emtir Ata" style="ellipse;whiteSpace=wrap;html=1;" vertex="1" parent="1">
          <mxGeometry x="425" y="130" width="140" height="70" as="geometry" />
        </mxCell>
        <mxCell id="sqPBYtyfBx3uXmts66P_-2" value="Emissor" style="shape=umlActor;verticalLabelPosition=bottom;verticalAlign=top;html=1;" vertex="1" parent="1">
          <mxGeometry x="200" y="140" width="30" height="60" as="geometry" />
        </mxCell>
        <mxCell id="sqPBYtyfBx3uXmts66P_-3" value="Sistema de EmissÃ£o de Ata" style="shape=umlFrame;whiteSpace=wrap;html=1;pointerEvents=0;recursiveResize=0;container=1;collapsible=0;width=160;" vertex="1" parent="1">
          <mxGeometry x="300" y="50" width="370" height="260" as="geometry" />
        </mxCell>
        <mxCell id="sqPBYtyfBx3uXmts66P_-4" style="edgeStyle=orthogonalEdgeStyle;rounded=0;orthogonalLoop=1;jettySize=auto;html=1;entryX=-0.007;entryY=0.6;entryDx=0;entryDy=0;entryPerimeter=0;endArrow=none;endFill=0;" edge="1" parent="1" source="sqPBYtyfBx3uXmts66P_-2" target="sqPBYtyfBx3uXmts66P_-1">
          <mxGeometry relative="1" as="geometry" />
        </mxCell>
      </root>
    </mxGraphModel>
  </diagram>
</mxfile>
